<?xml version="1.0" encoding="iso-8859-1"?>
<!-- Generator: Adobe Illustrator 17.1.0, SVG Export Plug-In . SVG Version: 6.00 Build 0)  -->
<!DOCTYPE svg PUBLIC "-//W3C//DTD SVG 1.1//EN" "http://www.w3.org/Graphics/SVG/1.1/DTD/svg11.dtd">
<svg version="1.1" id="Capa_1" xmlns="http://www.w3.org/2000/svg" xmlns:xlink="http://www.w3.org/1999/xlink" x="0px" y="0px"
	 viewBox="0 0 512.023 512.023" style="enable-background:new 0 0 512.023 512.023;" xml:space="preserve">
<g>
	<path d="M496.594,80.432c-79.711-5.587-160.654-8.42-240.582-8.42s-160.871,2.833-240.589,8.42C6.774,81.046,0,88.297,0,96.939
		v318.145c0,8.645,6.776,15.896,15.43,16.507c79.711,5.587,160.654,8.42,240.582,8.42s160.871-2.833,240.586-8.42
		c8.649-0.611,15.425-7.862,15.425-16.507V96.939C512.023,88.292,505.247,81.042,496.594,80.432z M496.023,184.012h-24.012
		c-4.418,0-8,3.582-8,8s3.582,8,8,8h24.012v16h-56.012c-4.418,0-8,3.582-8,8s3.582,8,8,8h56.012v16h-80.012c-4.418,0-8,3.582-8,8
		s3.582,8,8,8h80.012v16h-56.012c-4.418,0-8,3.582-8,8s3.582,8,8,8h56.012v16h-24.012c-4.418,0-8,3.582-8,8s3.582,8,8,8h24.012
		v37.698L386.325,256.012l109.698-109.698V184.012z M292.493,88.217l-36.982,36.981l-36.971-36.97
		c12.509-0.138,25.003-0.216,37.471-0.216C268.151,88.012,280.315,88.085,292.493,88.217z M16,328.012h24.012c4.418,0,8-3.582,8-8
		s-3.582-8-8-8H16v-16h56.012c4.418,0,8-3.582,8-8s-3.582-8-8-8H16v-16h80.012c4.418,0,8-3.582,8-8s-3.582-8-8-8H16v-16h56.012
		c4.418,0,8-3.582,8-8s-3.582-8-8-8H16v-16h24.012c4.418,0,8-3.582,8-8s-3.582-8-8-8H16v-36.698l108.698,108.698L16,364.71V328.012z
		 M218.541,423.796l36.971-36.97l36.982,36.981c-12.178,0.131-24.343,0.205-36.482,0.205
		C243.544,424.012,231.05,423.934,218.541,423.796z M495.475,415.631c-59.843,4.194-120.383,6.827-180.662,7.869l-53.645-53.645
		c-3.124-3.124-8.189-3.124-11.313,0l-53.63,53.63c-59.952-1.053-120.159-3.682-179.672-7.854c-0.229-0.016-0.547-0.387-0.553-0.547
		v-27.748l125.668-125.668c3.125-3.124,3.125-8.189,0-11.313L16,124.687V96.94c0.007-0.16,0.327-0.532,0.548-0.547
		c59.517-4.172,119.724-6.801,179.677-7.854l53.63,53.63c1.562,1.562,3.609,2.343,5.657,2.343s4.095-0.781,5.657-2.343
		l53.645-53.645c60.278,1.042,120.818,3.675,180.659,7.869c0.224,0.016,0.546,0.391,0.551,0.547v26.747L369.355,250.355
		c-3.125,3.124-3.125,8.189,0,11.313l126.668,126.668v26.748C496.019,415.244,495.702,415.615,495.475,415.631z"/>
	<path d="M256.012,192.012c-35.29,0-64,28.71-64,64s28.71,64,64,64s64-28.71,64-64S291.301,192.012,256.012,192.012z
		 M256.012,304.012c-26.467,0-48-21.533-48-48s21.533-48,48-48s48,21.533,48,48S282.479,304.012,256.012,304.012z"/>
	<path d="M280.012,248.012h-48c-4.418,0-8,3.582-8,8s3.582,8,8,8h48c4.418,0,8-3.582,8-8S284.43,248.012,280.012,248.012z"/>
</g>
<g>
</g>
<g>
</g>
<g>
</g>
<g>
</g>
<g>
</g>
<g>
</g>
<g>
</g>
<g>
</g>
<g>
</g>
<g>
</g>
<g>
</g>
<g>
</g>
<g>
</g>
<g>
</g>
<g>
</g>
</svg>
